# xmcd
#
# Track frame offsets: 
#        150
#        10493
#        21115
#        32455
#        44664
#        55843
#        67588
#        79083
#        89018
#        98500
#        110210
#        124427
#
# Disc length: 1821 seconds
#
# Revision: 0
# Processed by: cddbd v1.5.2PL0 Copyright (c) Steve Scherf et al.
# Submitted via: ExactAudioCopy v1.3
#
DISCID=9a071b0c
DTITLE=Hank Williams Jr. - Blue's My Name
DYEAR=1966
DGENRE=Country
TTITLE0=Salt Lake City
TTITLE1=A Good Leavin' Alone
TTITLE2=Weary Blues From Waitin'
TTITLE3=Wrong Doin' Man
TTITLE4=These Boots Are Made For Walkin'
TTITLE5=Cry Cry Darling
TTITLE6=It's Written All Over Your Face
TTITLE7=When You're Tired Of Breaking Other Hearts
TTITLE8=Blues My Name
TTITLE9=Low As A Man Can Go
TTITLE10=Old Frank
TTITLE11=So Easy To Forgive Her (But So Hard To Forget)
EXTD=
EXTT0=
EXTT1=
EXTT2=
EXTT3=
EXTT4=
EXTT5=
EXTT6=
EXTT7=
EXTT8=
EXTT9=
EXTT10=
EXTT11=
PLAYORDER=
